<svg xmlns="http://www.w3.org/2000/svg" width="800" height="450">
  <defs>
    <linearGradient id="bg" x1="0%" y1="0%" x2="100%" y2="100%">
      <stop offset="0%" stop-color="#059669"/>
      <stop offset="100%" stop-color="#0d9488"/>
    </linearGradient>
  </defs>
  <rect width="800" height="450" fill="url(#bg)" rx="8"/>
  <rect x="50" y="30" width="700" height="32" rx="6" fill="rgba(255,255,255,0.1)"/>
  <circle cx="75" cy="46" r="6" fill="rgba(255,255,255,0.3)"/>
  <circle cx="95" cy="46" r="6" fill="rgba(255,255,255,0.25)"/>
  <circle cx="115" cy="46" r="6" fill="rgba(255,255,255,0.2)"/>
  <rect x="50" y="80" width="200" height="340" rx="8" fill="rgba(255,255,255,0.06)"/>
  <rect x="70" y="100" width="160" height="16" rx="3" fill="rgba(255,255,255,0.12)"/>
  <rect x="70" y="130" width="140" height="10" rx="3" fill="rgba(255,255,255,0.06)"/>
  <rect x="70" y="150" width="120" height="10" rx="3" fill="rgba(255,255,255,0.06)"/>
  <rect x="70" y="170" width="150" height="10" rx="3" fill="rgba(255,255,255,0.06)"/>
  <rect x="270" y="80" width="480" height="160" rx="8" fill="rgba(255,255,255,0.04)"/>
  <rect x="300" y="110" width="300" height="20" rx="4" fill="rgba(255,255,255,0.1)"/>
  <rect x="300" y="145" width="400" height="12" rx="3" fill="rgba(255,255,255,0.06)"/>
  <rect x="300" y="165" width="350" height="12" rx="3" fill="rgba(255,255,255,0.06)"/>
  <rect x="300" y="195" width="130" height="30" rx="6" fill="rgba(255,255,255,0.08)"/>
  <rect x="270" y="260" width="230" height="160" rx="8" fill="rgba(255,255,255,0.04)"/>
  <rect x="520" y="260" width="230" height="160" rx="8" fill="rgba(255,255,255,0.04)"/>
  <text x="400" y="430" text-anchor="middle" fill="rgba(255,255,255,0.35)" font-family="system-ui,sans-serif" font-size="13">Replace with actual screenshot</text>
</svg>
