<svg xmlns="http://www.w3.org/2000/svg" width="800" height="450">
  <defs>
    <linearGradient id="bg" x1="0%" y1="0%" x2="100%" y2="100%">
      <stop offset="0%" stop-color="#d97706"/>
      <stop offset="100%" stop-color="#ea580c"/>
    </linearGradient>
  </defs>
  <rect width="800" height="450" fill="url(#bg)" rx="8"/>
  <rect x="50" y="30" width="700" height="32" rx="6" fill="rgba(255,255,255,0.1)"/>
  <circle cx="75" cy="46" r="6" fill="rgba(255,255,255,0.3)"/>
  <circle cx="95" cy="46" r="6" fill="rgba(255,255,255,0.25)"/>
  <circle cx="115" cy="46" r="6" fill="rgba(255,255,255,0.2)"/>
  <rect x="50" y="80" width="700" height="180" rx="8" fill="rgba(255,255,255,0.06)"/>
  <rect x="80" y="100" width="250" height="24" rx="4" fill="rgba(255,255,255,0.12)"/>
  <rect x="80" y="140" width="400" height="12" rx="3" fill="rgba(255,255,255,0.06)"/>
  <rect x="80" y="160" width="350" height="12" rx="3" fill="rgba(255,255,255,0.06)"/>
  <rect x="80" y="190" width="120" height="36" rx="6" fill="rgba(255,255,255,0.1)"/>
  <rect x="220" y="190" width="120" height="36" rx="6" fill="rgba(255,255,255,0.08)"/>
  <rect x="50" y="280" width="340" height="140" rx="8" fill="rgba(255,255,255,0.04)"/>
  <rect x="410" y="280" width="340" height="140" rx="8" fill="rgba(255,255,255,0.04)"/>
  <rect x="80" y="310" width="200" height="14" rx="3" fill="rgba(255,255,255,0.08)"/>
  <rect x="80" y="335" width="260" height="10" rx="3" fill="rgba(255,255,255,0.05)"/>
  <rect x="440" y="310" width="200" height="14" rx="3" fill="rgba(255,255,255,0.08)"/>
  <rect x="440" y="335" width="260" height="10" rx="3" fill="rgba(255,255,255,0.05)"/>
  <text x="400" y="430" text-anchor="middle" fill="rgba(255,255,255,0.35)" font-family="system-ui,sans-serif" font-size="13">Replace with actual screenshot</text>
</svg>
