<svg xmlns="http://www.w3.org/2000/svg" width="800" height="450">
  <defs>
    <linearGradient id="bg" x1="0%" y1="0%" x2="100%" y2="100%">
      <stop offset="0%" stop-color="#e11d48"/>
      <stop offset="100%" stop-color="#db2777"/>
    </linearGradient>
  </defs>
  <rect width="800" height="450" fill="url(#bg)" rx="8"/>
  <rect x="50" y="30" width="700" height="32" rx="6" fill="rgba(255,255,255,0.1)"/>
  <circle cx="75" cy="46" r="6" fill="rgba(255,255,255,0.3)"/>
  <circle cx="95" cy="46" r="6" fill="rgba(255,255,255,0.25)"/>
  <circle cx="115" cy="46" r="6" fill="rgba(255,255,255,0.2)"/>
  <rect x="50" y="80" width="220" height="340" rx="8" fill="rgba(255,255,255,0.06)"/>
  <circle cx="160" cy="140" r="35" fill="rgba(255,255,255,0.1)"/>
  <rect x="110" y="190" width="100" height="14" rx="3" fill="rgba(255,255,255,0.12)"/>
  <rect x="90" y="215" width="140" height="10" rx="3" fill="rgba(255,255,255,0.06)"/>
  <rect x="70" y="250" width="180" height="30" rx="6" fill="rgba(255,255,255,0.05)"/>
  <rect x="70" y="290" width="180" height="30" rx="6" fill="rgba(255,255,255,0.05)"/>
  <rect x="70" y="330" width="180" height="30" rx="6" fill="rgba(255,255,255,0.05)"/>
  <rect x="290" y="80" width="460" height="160" rx="8" fill="rgba(255,255,255,0.04)"/>
  <rect x="320" y="100" width="200" height="16" rx="3" fill="rgba(255,255,255,0.1)"/>
  <rect x="320" y="130" width="380" height="10" rx="3" fill="rgba(255,255,255,0.06)"/>
  <rect x="320" y="150" width="350" height="10" rx="3" fill="rgba(255,255,255,0.06)"/>
  <rect x="320" y="170" width="300" height="10" rx="3" fill="rgba(255,255,255,0.06)"/>
  <rect x="290" y="260" width="460" height="160" rx="8" fill="rgba(255,255,255,0.04)"/>
  <rect x="320" y="280" width="200" height="16" rx="3" fill="rgba(255,255,255,0.1)"/>
  <rect x="320" y="310" width="380" height="10" rx="3" fill="rgba(255,255,255,0.06)"/>
  <rect x="320" y="330" width="350" height="10" rx="3" fill="rgba(255,255,255,0.06)"/>
  <text x="400" y="430" text-anchor="middle" fill="rgba(255,255,255,0.35)" font-family="system-ui,sans-serif" font-size="13">Replace with actual screenshot</text>
</svg>
