<svg xmlns="http://www.w3.org/2000/svg" width="800" height="450">
  <defs>
    <linearGradient id="bg" x1="0%" y1="0%" x2="100%" y2="100%">
      <stop offset="0%" stop-color="#7c3aed"/>
      <stop offset="100%" stop-color="#db2777"/>
    </linearGradient>
  </defs>
  <rect width="800" height="450" fill="url(#bg)" rx="8"/>
  <rect x="50" y="30" width="700" height="32" rx="6" fill="rgba(255,255,255,0.1)"/>
  <circle cx="75" cy="46" r="6" fill="rgba(255,255,255,0.3)"/>
  <circle cx="95" cy="46" r="6" fill="rgba(255,255,255,0.25)"/>
  <circle cx="115" cy="46" r="6" fill="rgba(255,255,255,0.2)"/>
  <rect x="50" y="80" width="700" height="200" rx="8" fill="rgba(255,255,255,0.06)"/>
  <polygon points="400,130 350,210 450,210" fill="rgba(255,255,255,0.1)"/>
  <circle cx="400" cy="170" r="30" fill="rgba(255,255,255,0.08)"/>
  <rect x="50" y="300" width="220" height="120" rx="8" fill="rgba(255,255,255,0.05)"/>
  <rect x="290" y="300" width="220" height="120" rx="8" fill="rgba(255,255,255,0.05)"/>
  <rect x="530" y="300" width="220" height="120" rx="8" fill="rgba(255,255,255,0.05)"/>
  <rect x="70" y="320" width="180" height="12" rx="3" fill="rgba(255,255,255,0.1)"/>
  <rect x="70" y="340" width="140" height="10" rx="3" fill="rgba(255,255,255,0.06)"/>
  <rect x="310" y="320" width="180" height="12" rx="3" fill="rgba(255,255,255,0.1)"/>
  <rect x="310" y="340" width="140" height="10" rx="3" fill="rgba(255,255,255,0.06)"/>
  <rect x="550" y="320" width="180" height="12" rx="3" fill="rgba(255,255,255,0.1)"/>
  <rect x="550" y="340" width="140" height="10" rx="3" fill="rgba(255,255,255,0.06)"/>
  <text x="400" y="430" text-anchor="middle" fill="rgba(255,255,255,0.35)" font-family="system-ui,sans-serif" font-size="13">Replace with actual screenshot</text>
</svg>
