<svg xmlns="http://www.w3.org/2000/svg" width="800" height="450">
  <defs>
    <linearGradient id="bg" x1="0%" y1="0%" x2="100%" y2="100%">
      <stop offset="0%" stop-color="#0891b2"/>
      <stop offset="100%" stop-color="#1d4ed8"/>
    </linearGradient>
  </defs>
  <rect width="800" height="450" fill="url(#bg)" rx="8"/>
  <rect x="50" y="30" width="700" height="32" rx="6" fill="rgba(255,255,255,0.12)"/>
  <circle cx="75" cy="46" r="6" fill="rgba(255,255,255,0.3)"/>
  <circle cx="95" cy="46" r="6" fill="rgba(255,255,255,0.25)"/>
  <circle cx="115" cy="46" r="6" fill="rgba(255,255,255,0.2)"/>
  <rect x="200" y="38" width="180" height="14" rx="3" fill="rgba(255,255,255,0.1)"/>
  <rect x="50" y="80" width="160" height="340" rx="8" fill="rgba(255,255,255,0.06)"/>
  <rect x="70" y="100" width="120" height="12" rx="3" fill="rgba(255,255,255,0.15)"/>
  <rect x="70" y="125" width="100" height="10" rx="3" fill="rgba(255,255,255,0.08)"/>
  <rect x="70" y="145" width="110" height="10" rx="3" fill="rgba(255,255,255,0.08)"/>
  <rect x="70" y="165" width="90" height="10" rx="3" fill="rgba(255,255,255,0.08)"/>
  <rect x="70" y="185" width="105" height="10" rx="3" fill="rgba(255,255,255,0.08)"/>
  <rect x="230" y="80" width="520" height="340" rx="8" fill="rgba(255,255,255,0.04)"/>
  <rect x="260" y="110" width="300" height="18" rx="4" fill="rgba(255,255,255,0.12)"/>
  <rect x="260" y="145" width="460" height="12" rx="3" fill="rgba(255,255,255,0.06)"/>
  <rect x="260" y="165" width="420" height="12" rx="3" fill="rgba(255,255,255,0.06)"/>
  <rect x="260" y="200" width="220" height="140" rx="6" fill="rgba(255,255,255,0.05)"/>
  <rect x="500" y="200" width="220" height="140" rx="6" fill="rgba(255,255,255,0.05)"/>
  <text x="400" y="430" text-anchor="middle" fill="rgba(255,255,255,0.35)" font-family="system-ui,sans-serif" font-size="13">Replace with actual screenshot</text>
</svg>
